<svg xmlns="http://www.w3.org/2000/svg" xmlns:xlink="http://www.w3.org/1999/xlink" width="329.76190043685096" height="52.04761900436853" version="1.1" style=""><rect id="backgroundrect" width="100%" height="100%" x="0" y="0" fill="none" stroke="none"/>

<g class="currentLayer" style=""><title>Layer 1</title><g id="surface1" class="selected" fill="#ffffff" fill-opacity="1">
<path style="stroke: none; fill-rule: nonzero;" d="M-15.899879980426789,37.34712567925453 C-16.72409898042679,32.436968679254505 -18.38816098042679,27.81978167925456 -20.73191098042679,23.667437679254533 L-89.84128598042679,23.667437679254533 C-92.18503598042679,27.81978167925456 -93.84909898042679,32.436968679254505 -94.67331798042679,37.34712567925453 L-15.899879980426789,37.34712567925453 " id="svg_1" fill="#ffffff" fill-opacity="1"/>
<path style="stroke: none; fill-rule: nonzero;" d="M-37.45847398042679,7.339312679254533 C-42.82566098042679,4.569781679254561 -48.88034898042679,3.011187679254533 -55.28659898042679,3.011187679254533 C-61.63034898042679,3.011187679254533 -67.63425498042679,4.542437679254533 -72.96628598042679,7.261187679254533 L-72.96628598042679,7.3940006792545345 L-37.45847398042679,7.3940006792545345 L-37.45847398042679,7.339312679254533 " id="svg_2" fill="#ffffff" fill-opacity="1"/>
<path style="stroke: none; fill-rule: nonzero;" d="M-25.86472398042679,16.358843679254505 C-28.38425498042679,13.530718679254505 -31.27878598042679,11.065875679254532 -34.46628598042679,9.050250679254532 L-76.10691098042679,9.050250679254532 C-79.29831798042679,11.065875679254532 -82.18894298042679,13.530718679254505 -84.70847398042679,16.358843679254505 L-25.86472398042679,16.358843679254505 " id="svg_3" fill="#ffffff" fill-opacity="1"/>
<path style="stroke: none; fill-rule: nonzero;" d="M-89.00534898042679,22.011187679254533 L-21.56784898042679,22.011187679254533 C-22.423317980426788,20.620562679254533 -23.36472398042679,19.28853167925456 -24.37253598042679,18.015093679254505 L-86.20066098042679,18.015093679254505 C-87.20847398042679,19.28853167925456 -88.14597398042679,20.620562679254533 -89.00534898042679,22.011187679254533 " id="svg_4" fill="#ffffff" fill-opacity="1"/>
<path style="stroke: none; fill-rule: nonzero;" d="M-19.579567980426788,29.886187679254533 C-20.563942980426788,28.874468679254505 -22.688942980426788,29.421343679254505 -25.251442980426788,27.827593679254505 C-26.157692980426788,27.265093679254505 -26.860817980426788,26.964312679254533 -27.47800498042679,26.952593679254505 C-27.532692980426788,26.948687679254533 -27.59128598042679,26.952593679254505 -27.642067980426788,26.952593679254505 C-28.142067980426788,26.97603167925456 -28.59128598042679,27.128375679254532 -29.06003598042679,27.343218679254505 C-29.94284898042679,27.83540667925456 -30.64597398042679,28.737750679254532 -31.204567980426788,29.753375679254535 C-31.68503598042679,29.91353167925456 -31.34128598042679,30.042437679254533 -32.64597398042679,28.886187679254533 L-33.96628598042679,28.534625679254535 C-34.35691098042679,28.065875679254532 -35.28659898042679,25.542437679254533 -36.56003598042679,23.749468679254505 C-38.12253598042679,21.42915667925456 -40.83737998042679,17.644000679254535 -43.48191098042679,15.472125679254532 C-46.78659898042679,12.999468679254505 -48.98581798042679,14.054156679254561 -51.12253598042679,15.249468679254505 C-53.27097398042679,16.44478167925456 -54.60300498042679,18.315875679254532 -56.69675498042679,19.511187679254533 C-58.95066098042679,20.261187679254533 -59.93112998042679,21.354937679254533 -59.93112998042679,21.354937679254533 C-59.93112998042679,21.354937679254533 -60.65769298042679,21.280718679254505 -61.45456798042679,20.41353167925456 C-62.24753598042679,19.546343679254505 -63.39987998042679,20.261187679254533 -65.64987998042679,21.577593679254505 C-67.89206798042679,22.894000679254532 -67.68894298042679,22.636187679254533 -70.15769298042679,23.46040667925456 C-73.33737998042679,24.999468679254505 -74.38034898042679,27.378375679254532 -74.69284898042679,28.374468679254502 C-74.56784898042679,27.81978167925456 -76.31394298042679,29.214312679254533 -76.95456798042679,29.065875679254532 C-77.17331798042679,28.737750679254532 -77.41550498042679,28.401812679254533 -77.67722398042679,28.06978167925456 C-78.67331798042679,26.81978167925456 -79.88425498042679,25.63228167925456 -80.66159898042679,25.202593679254505 C-81.56394298042679,24.706500679254535 -82.45847398042679,24.870562679254533 -82.86081798042679,24.987750679254532 C-82.87644298042679,24.99165667925456 -82.88816098042679,24.995562679254533 -82.90769298042679,24.999468679254505 C-82.92331798042679,25.00728167925456 -82.94284898042679,25.011187679254533 -82.95847398042679,25.015093679254505 C-85.00144298042679,25.733843679254505 -85.68112998042679,28.222125679254532 -87.44284898042679,28.323687679254533 C-88.99362998042679,28.417437679254533 -90.73581798042679,29.124468679254505 -92.19675498042679,30.503375679254535 C-86.71237998042679,14.917437679254533 -72.23581798042679,3.761187679254533 -55.28659898042679,3.761187679254533 C-38.32956798042679,3.761187679254533 -23.85300498042679,14.925250679254534 -18.37253598042679,30.519000679254535 C-18.80612998042679,30.421343679254505 -19.24362998042679,30.233843679254505 -19.579567980426788,29.886187679254533 zM-74.71237998042679,28.436968679254505 C-74.71237998042679,28.436968679254505 -74.71237998042679,28.436968679254505 -74.71237998042679,28.433062679254533 zM-55.28659898042679,2.2650936792545053 C-77.73191098042679,2.2650936792545053 -95.98972398042679,21.140093679254505 -95.98972398042679,44.343218679254505 C-95.98972398042679,46.50337567925453 -95.83347398042679,48.671343679254505 -95.52097398042679,50.77681267925453 L-95.41941098042679,51.41353167925456 L-15.149879980426789,51.41353167925456 L-15.063942980426788,50.77681267925453 C-14.743629980426789,48.671343679254505 -14.587379980426789,46.50728167925456 -14.587379980426789,44.343218679254505 C-14.587379980426789,21.140093679254505 -32.84519298042679,2.2650936792545053 -55.28659898042679,2.2650936792545053 " id="svg_5" fill="#ffffff" fill-opacity="1"/>
<path style="stroke: none; fill-rule: nonzero;" d="M-14.52878598042679,52.14790667925456 L-96.13034898042679,52.14790667925456 C-96.63034898042679,49.46040667925456 -96.88816098042679,46.71040667925456 -96.88816098042679,43.94868767925453 C-96.88816098042679,20.253375679254532 -78.24362998042679,0.9838436792545067 -55.32566098042679,0.9838436792545067 C-32.41159898042679,0.9838436792545067 -13.770973980426788,20.253375679254532 -13.770973980426788,43.94868767925453 C-13.770973980426788,46.70650067925453 -14.020973980426788,49.46040667925456 -14.52878598042679,52.14790667925456 zM-55.32566098042679,-0.012249320745467944 C-78.77487998042679,-0.012249320745467944 -97.84909898042679,19.714312679254533 -97.84909898042679,43.94868767925453 C-97.84909898042679,46.905718679254505 -97.56003598042679,49.87056267925453 -96.99753598042679,52.74556267925453 L-96.92331798042679,53.13618767925453 L-13.739723980426788,53.13618767925453 L-13.661598980426788,52.74556267925453 C-13.09128598042679,49.86665667925456 -12.81003598042679,46.905718679254505 -12.81003598042679,43.94868767925453 C-12.81003598042679,19.714312679254533 -31.88034898042679,-0.012249320745467944 -55.32566098042679,-0.012249320745467944 " id="svg_6" fill="#ffffff" fill-opacity="1"/>
<path style="stroke: none; fill-rule: nonzero;" d="M-62.19675498042679,39.343218679254505 C-68.52097398042679,38.73775067925453 -31.298317980426788,34.280718679254505 -31.204567980426788,29.753375679254535 C-31.26316098042679,29.77290667925456 -31.313942980426788,29.776812679254533 -31.39987998042679,29.792437679254533 C-31.79050498042679,30.214312679254533 -33.50534898042679,30.99165667925456 -34.81784898042679,31.436968679254505 C-41.84909898042679,33.81978167925456 -65.61862998042679,36.97993767925453 -67.77097398042679,37.55415667925456 C-69.03269298042679,37.890093679254505 -73.73191098042679,38.92525067925453 -71.48972398042679,40.968218679254505 C-70.49362998042679,41.87837567925453 -68.12253598042679,41.811968679254505 -66.41159898042679,42.03853167925456 C-62.50534898042679,42.546343679254505 -44.13034898042679,42.13228167925456 -54.71628598042679,44.56587567925453 C-58.07566098042679,45.343218679254505 -61.38034898042679,46.27681267925453 -64.71628598042679,47.108843679254505 C-66.40378598042679,47.52681267925453 -76.50144298042679,50.00728167925456 -82.81003598042679,51.61665667925456 L-59.04831798042679,51.61665667925456 C-55.23191098042679,50.19087567925453 -47.79831798042679,46.593218679254505 -43.38816098042679,44.45650067925453 C-35.58737998042679,40.67525067925453 -51.32566098042679,40.37837567925453 -62.19675498042679,39.343218679254505 " id="svg_7" fill="#ffffff" fill-opacity="1"/>
<path style="stroke: none; fill-rule: nonzero;" d="M45.86574501957321,44.64400067925453 C45.22121401957321,45.06978167925456 44.47121401957321,45.327593679254505 43.74465101957321,45.35493767925453 C41.30324501957321,45.34712567925453 39.83449501957321,43.24165667925456 40.62355701957321,41.01900067925453 C41.41652601957321,38.80025067925453 44.13527601957321,37.80025067925453 44.13527601957321,37.80025067925453 C44.62355701957321,37.60103167925456 45.25246401957321,37.38228167925456 45.87355701957321,37.22212567925453 zM56.52980701957321,48.16353167925456 L56.52980701957321,30.13228167925456 L56.52590101957321,30.128375679254532 C56.52590101957321,20.38228167925456 51.84230701957321,15.933062679254533 45.21730701957321,15.936968679254505 C41.89308901957321,15.936968679254505 39.16262001957321,16.620562679254533 37.26808901957321,17.30415667925456 L34.32277601957321,25.78853167925456 C34.32277601957321,25.78853167925456 45.89699501957321,20.33540667925456 45.89699501957321,29.19478167925456 L45.89699501957321,29.733843679254505 C45.89699501957321,29.733843679254505 45.89308901957321,29.733843679254505 45.89308901957321,29.733843679254505 C45.89308901957321,29.733843679254505 31.20558901957321,31.97603167925456 30.89308901957321,43.452593679254505 C30.889182019573212,43.577593679254505 30.889182019573212,44.13228167925456 30.889182019573212,44.26118767925453 C30.889182019573212,44.26118767925453 30.889182019573212,44.26118767925453 30.89308901957321,44.26118767925453 C30.740745019573215,49.11275067925453 34.45949501957321,53.11275067925453 40.03762001957321,53.13618767925453 C42.02980701957321,53.06587567925453 44.08449501957321,52.358843679254505 45.85402601957321,51.186968679254505 L45.85402601957321,53.140093679254505 L57.92824501957321,53.140093679254505 C57.04152601957321,51.69478167925456 56.52980701957321,49.99165667925456 56.52980701957321,48.16353167925456 " id="svg_8" fill="#ffffff" fill-opacity="1"/>
<path style="stroke: none; fill-rule: nonzero;" d="M174.41262001957324,44.64400067925453 C173.76418201957318,45.06978167925456 173.01418201957318,45.327593679254505 172.28762001957324,45.35493767925453 C169.84230701957318,45.34712567925453 168.3774640195732,43.24165667925456 169.17043201957318,41.01900067925453 C169.95949501957324,38.80025067925453 172.67824501957324,37.80025067925453 172.67824501957324,37.80025067925453 C173.17043201957318,37.60103167925456 173.79543201957318,37.38228167925456 174.4165260195732,37.22212567925453 zM185.0727760195732,48.16353167925456 L185.0727760195732,30.128375679254532 C185.06887001957324,20.38228167925456 180.38918201957318,15.933062679254533 173.75637001957324,15.936968679254505 C170.43605701957318,15.936968679254505 167.70949501957324,16.620562679254533 165.8149640195732,17.30415667925456 L162.8696510195732,25.78853167925456 C162.8696510195732,25.78853167925456 174.4399640195732,20.33540667925456 174.4399640195732,29.19478167925456 L174.4399640195732,29.733843679254505 C174.4399640195732,29.733843679254505 174.4399640195732,29.733843679254505 174.43605701957318,29.733843679254505 C174.43605701957318,29.733843679254505 159.7524640195732,31.97603167925456 159.4321510195732,43.452593679254505 C159.4321510195732,43.577593679254505 159.42824501957324,44.13228167925456 159.42824501957324,44.26118767925453 C159.42824501957324,44.26118767925453 159.4321510195732,44.26118767925453 159.4399640195732,44.26118767925453 C159.2837140195732,49.11275067925453 163.0024640195732,53.11275067925453 168.58449501957324,53.13618767925453 C170.57668201957318,53.06587567925453 172.6274640195732,52.358843679254505 174.4009010195732,51.186968679254505 L174.4009010195732,53.140093679254505 L186.4712140195732,53.140093679254505 C185.58449501957324,51.69478167925456 185.0727760195732,49.99165667925456 185.0727760195732,48.16353167925456 " id="svg_9" fill="#ffffff" fill-opacity="1"/>
<path style="stroke: none; fill-rule: nonzero;" d="M26.92433901957321,14.003375679254532 C25.47121401957321,12.577593679254505 24.178245019573215,11.561968679254505 23.053245019573215,10.964312679254533 C21.920432019573212,10.358843679254505 20.748557019573212,10.058062679254533 19.54152601957321,10.058062679254533 C18.389182019573212,10.058062679254533 17.44777601957321,10.421343679254505 16.71340101957321,11.140093679254505 C15.979026019573212,11.858843679254505 15.61183901957321,12.788531679254561 15.61183901957321,13.901812679254533 C15.61183901957321,15.089312679254533 15.869651019573212,16.151812679254533 16.39308901957321,17.097125679254532 C16.91652601957321,18.019000679254532 17.842307019573212,19.089312679254533 19.178245019573215,20.311968679254502 C22.41262001957321,23.280718679254505 24.76027601957321,26.046343679254505 26.22512001957321,28.644000679254535 C27.68996401957321,31.202593679254505 28.42824501957321,33.85493767925453 28.42824501957321,36.593218679254505 C28.42824501957321,41.44478167925456 27.061057019573212,45.40962567925453 24.32277601957321,48.50337567925453 C21.58058901957321,51.593218679254505 18.05715101957321,53.140093679254505 13.748557019573212,53.140093679254505 C11.635276019573212,53.140093679254505 9.854026019573212,52.968218679254505 8.416526019573212,52.63618767925453 C6.975120019573211,52.28853167925456 5.205589019573211,51.63618767925453 3.1352760195732117,50.671343679254505 L3.1352760195732117,37.58150067925453 C4.154807019573212,39.20650067925453 5.48683901957321,40.530718679254505 7.131370019573211,41.55025067925453 C8.775901019573212,42.56587567925453 10.385276019573212,43.08150067925453 11.959495019573211,43.08150067925453 C13.248557019573212,43.08150067925453 14.291526019573212,42.62056267925453 15.100120019573211,41.71040667925456 C15.904807019573212,40.80415667925456 16.311057019573212,39.62837567925453 16.311057019573212,38.17915667925456 C16.311057019573212,36.72603167925456 16.02590101957321,35.45650067925453 15.447776019573212,34.35493767925453 C14.885276019573212,33.28853167925456 13.865745019573211,32.06978167925456 12.381370019573213,30.71040667925456 C9.244651019573212,27.83540667925456 6.959495019573211,25.186968679254502 5.525901019573212,22.753375679254535 C4.096214019573211,20.339312679254533 3.381370019573211,17.909625679254532 3.381370019573211,15.452593679254505 C3.381370019573211,10.913531679254561 4.701682019573213,7.202593679254506 7.338401019573212,4.315875679254532 C9.975120019573211,1.4330626792545331 13.36183901957321,-0.008343320745438879 17.50246401957321,-0.008343320745438879 C19.03371401957321,-0.008343320745438879 20.67433901957321,0.17915667925456064 22.451682019573212,0.5658756792545337 C24.22902601957321,0.9525936792545069 25.71340101957321,1.4369686792545053 26.92433901957321,2.030718679254506 L26.92433901957321,14.003375679254532 " id="svg_10" fill="#ffffff" fill-opacity="1"/>
<path style="stroke: none; fill-rule: nonzero;" d="M100.87355701957318,12.284625679254534 C104.26808901957321,12.284625679254534 107.02199501957324,9.534625679254534 107.02199501957324,6.136187679254533 C107.02199501957324,2.7416566792545622 104.26808901957321,-0.008343320745438879 100.87355701957318,-0.008343320745438879 C97.47902601957321,-0.008343320745438879 94.72902601957321,2.7416566792545622 94.72902601957321,6.136187679254533 C94.72902601957321,9.534625679254534 97.47902601957321,12.284625679254534 100.87355701957318,12.284625679254534 " id="svg_11" fill="#ffffff" fill-opacity="1"/>
<path style="stroke: none; fill-rule: nonzero;" d="M106.18996401957321,20.91353167925456 C106.18996401957321,19.08540667925456 106.70558901957321,17.378375679254532 107.59621401957321,15.933062679254533 L94.15480701957318,15.933062679254533 C95.04543201957318,17.378375679254532 95.55715101957321,19.08540667925456 95.55715101957321,20.91353167925456 L95.55715101957321,48.16353167925456 C95.55715101957321,49.99165667925456 95.04543201957318,51.69478167925456 94.15871401957321,53.140093679254505 L107.59230701957318,53.140093679254505 C106.70558901957321,51.69478167925456 106.18996401957321,49.99165667925456 106.18996401957321,48.16353167925456 L106.18996401957321,20.91353167925456 " id="svg_12" fill="#ffffff" fill-opacity="1"/>
<path style="stroke: none; fill-rule: nonzero;" d="M89.93996401957321,48.16353167925456 L89.93996401957321,25.690875679254535 C89.93996401957321,25.636187679254533 89.93996401957321,25.58540667925456 89.93996401957321,25.534625679254535 L89.93996401957321,25.308062679254533 L89.93215101957321,25.311968679254502 C89.64699501957324,16.202593679254505 80.77980701957318,15.936968679254505 80.77980701957318,15.936968679254505 C75.85402601957321,15.936968679254505 73.51027601957321,18.14790667925456 72.77980701957321,19.019000679254532 L72.77980701957321,15.936968679254505 L60.74855701957321,15.936968679254505 C61.63527601957321,17.38228167925456 62.15090101957321,19.08540667925456 62.15090101957321,20.91353167925456 L62.15090101957321,48.16353167925456 C62.15090101957321,49.99165667925456 61.63527601957321,51.69478167925456 60.74855701957321,53.140093679254505 L74.18215101957321,53.140093679254505 C73.29543201957321,51.69478167925456 72.77980701957321,49.99165667925456 72.77980701957321,48.16353167925456 L72.77980701957321,27.06978167925456 C73.70558901957321,26.311968679254502 74.85793201957318,25.88228167925456 76.08449501957324,25.88228167925456 C77.19777601957321,25.88228167925456 78.04543201957318,26.339312679254533 78.63527601957321,27.261187679254533 C79.21730701957318,28.17915667925456 79.30715101957321,29.436968679254505 79.30715101957321,31.140093679254505 L79.30715101957321,48.16353167925456 C79.30715101957321,49.99165667925456 78.79543201957318,51.69478167925456 77.90871401957321,53.140093679254505 L91.33840101957321,53.140093679254505 C90.45168201957318,51.69478167925456 89.93996401957321,49.99165667925456 89.93996401957321,48.16353167925456 " id="svg_13" fill="#ffffff" fill-opacity="1"/>
<path style="stroke: none; fill-rule: nonzero;" d="M144.67043201957318,53.140093679254505 L158.1040260195732,53.140093679254505 C157.2134010195732,51.69478167925456 156.70168201957318,49.99165667925456 156.70168201957318,48.16353167925456 L156.70168201957318,25.690875679254535 L156.7055890195732,25.690875679254535 C156.7055890195732,25.636187679254533 156.7055890195732,25.58540667925456 156.70168201957318,25.534625679254535 L156.70168201957318,25.308062679254533 L156.6977760195732,25.311968679254502 C156.41262001957324,16.202593679254505 147.5415260195732,15.936968679254505 147.5415260195732,15.936968679254505 C147.53762001957324,15.936968679254505 147.5337140195732,15.936968679254505 147.52980701957318,15.936968679254505 C146.6430890195732,15.901812679254533 141.55324501957324,15.901812679254533 138.0180890195732,19.964312679254533 C135.3930890195732,16.08540667925456 130.43605701957318,15.936968679254505 130.43605701957318,15.936968679254505 C125.51808901957321,15.936968679254505 123.17433901957321,18.14790667925456 122.44387001957324,19.019000679254532 L122.44387001957324,15.936968679254505 L110.40871401957321,15.936968679254505 C111.29543201957318,17.38228167925456 111.81496401957321,19.08540667925456 111.81496401957321,20.91353167925456 L111.81496401957321,48.16353167925456 C111.81496401957321,49.99165667925456 111.29933901957321,51.69478167925456 110.40871401957321,53.140093679254505 L123.84230701957318,53.140093679254505 C122.95558901957321,51.69478167925456 122.44387001957324,49.99165667925456 122.44387001957324,48.16353167925456 L122.44387001957324,27.06978167925456 C123.36574501957324,26.311968679254502 124.51808901957321,25.88228167925456 125.74855701957318,25.88228167925456 C126.85793201957318,25.88228167925456 127.70949501957324,26.339312679254533 128.29543201957318,27.261187679254533 C128.8774640195732,28.17915667925456 128.96730701957318,29.436968679254505 128.96730701957318,31.140093679254505 L128.96730701957318,48.16353167925456 C128.96730701957318,49.99165667925456 128.4555890195732,51.69478167925456 127.56496401957321,53.140093679254505 L141.0024640195732,53.140093679254505 C140.11574501957324,51.69478167925456 139.60012001957324,49.99165667925456 139.60012001957324,48.16353167925456 L139.60012001957324,27.030718679254505 C140.51418201957318,26.296343679254505 141.6430890195732,25.88228167925456 142.85012001957324,25.88228167925456 C143.95949501957324,25.88228167925456 144.8071510195732,26.339312679254533 145.39699501957324,27.261187679254533 C145.9790260195732,28.17915667925456 146.0727760195732,29.436968679254505 146.0727760195732,31.140093679254505 L146.0727760195732,48.16353167925456 C146.0727760195732,49.99165667925456 145.55324501957324,51.69478167925456 144.67043201957318,53.140093679254505 " id="svg_14" fill="#ffffff" fill-opacity="1"/>
<path style="stroke: none; fill-rule: nonzero;" d="M244.6274640195732,44.64400067925453 C243.9868390195732,45.06978167925456 243.2368390195732,45.327593679254505 242.50637001957324,45.35493767925453 C240.0649640195732,45.34712567925453 238.60012001957324,43.24165667925456 239.38918201957318,41.01900067925453 C240.17824501957324,38.80025067925453 242.9009010195732,37.80025067925453 242.9009010195732,37.80025067925453 C243.3852760195732,37.60103167925456 244.0102760195732,37.38228167925456 244.63137001957324,37.22212567925453 zM255.2915260195732,48.16353167925456 L255.2915260195732,30.128375679254532 C255.28762001957324,20.38228167925456 250.6040260195732,15.933062679254533 243.97512001957324,15.936968679254505 C240.65480701957318,15.936968679254505 237.9243390195732,16.620562679254533 236.03762001957324,17.30415667925456 L233.0884010195732,25.78853167925456 C233.0884010195732,25.78853167925456 244.6587140195732,20.33540667925456 244.6587140195732,29.19478167925456 L244.6587140195732,29.733843679254505 C244.6587140195732,29.733843679254505 229.96730701957318,31.97603167925456 229.65480701957318,43.452593679254505 C229.6509010195732,43.577593679254505 229.64699501957324,44.13228167925456 229.64699501957324,44.26118767925453 C229.64699501957324,44.26118767925453 229.65480701957318,44.26118767925453 229.6587140195732,44.26118767925453 C229.5024640195732,49.11275067925453 233.2212140195732,53.11275067925453 238.7993390195732,53.13618767925453 C240.79543201957318,53.06587567925453 242.85012001957324,52.358843679254505 244.6196510195732,51.186968679254505 L244.6196510195732,53.140093679254505 L256.6899640195732,53.140093679254505 C255.80324501957324,51.69478167925456 255.2915260195732,49.99165667925456 255.2915260195732,48.16353167925456 " id="svg_15" fill="#ffffff" fill-opacity="1"/>
<path style="stroke: none; fill-rule: nonzero;" d="M288.7016820195732,48.16353167925456 L288.7016820195732,25.690875679254535 C288.7016820195732,25.636187679254533 288.7016820195732,25.58540667925456 288.7016820195732,25.534625679254535 L288.7016820195732,25.308062679254533 L288.6977760195732,25.311968679254502 C288.41262001957324,16.202593679254505 279.53762001957324,15.936968679254505 279.53762001957324,15.936968679254505 C274.6196510195732,15.936968679254505 272.27199501957324,18.14790667925456 271.5415260195732,19.019000679254532 L271.5415260195732,15.936968679254505 L259.50637001957324,15.936968679254505 C260.3930890195732,17.38228167925456 260.91262001957324,19.08540667925456 260.91262001957324,20.91353167925456 L260.91262001957324,48.16353167925456 C260.91262001957324,49.99165667925456 260.39699501957324,51.69478167925456 259.5102760195732,53.140093679254505 L272.94387001957324,53.140093679254505 C272.0571510195732,51.69478167925456 271.5415260195732,49.99165667925456 271.5415260195732,48.16353167925456 L271.5415260195732,27.06978167925456 C272.4634010195732,26.311968679254502 273.6235570195732,25.88228167925456 274.85012001957324,25.88228167925456 C275.95949501957324,25.88228167925456 276.80324501957324,26.339312679254533 277.39699501957324,27.261187679254533 C277.97512001957324,28.17915667925456 278.06887001957324,29.436968679254505 278.06887001957324,31.140093679254505 L278.06887001957324,48.16353167925456 C278.06887001957324,49.99165667925456 277.55324501957324,51.69478167925456 276.6665260195732,53.140093679254505 L290.1040260195732,53.140093679254505 C289.2134010195732,51.69478167925456 288.7016820195732,49.99165667925456 288.7016820195732,48.16353167925456 " id="svg_16" fill="#ffffff" fill-opacity="1"/>
<path style="stroke: none; fill-rule: nonzero;" d="M212.83449501957324,41.86275067925453 C211.42043201957318,43.16353167925456 209.40480701957318,43.80415667925456 206.7915260195732,43.80415667925456 L206.60012001957324,43.80415667925456 L206.60012001957324,29.74165667925456 L206.7368390195732,29.74165667925456 C209.37355701957318,29.74165667925456 211.4087140195732,30.311968679254502 212.8227760195732,31.46040667925456 C214.2446510195732,32.60103167925456 214.9477760195732,34.23775067925453 214.9477760195732,36.358843679254505 C214.9477760195732,38.74556267925453 214.2524640195732,40.58150067925453 212.83449501957324,41.86275067925453 zM207.29543201957318,8.823687679254533 C209.37355701957318,8.823687679254533 210.97512001957324,9.331500679254534 212.1118390195732,10.354937679254533 C213.2446510195732,11.370562679254533 213.81105701957318,12.827593679254505 213.81105701957318,14.733843679254505 C213.81105701957318,16.858843679254505 213.2134010195732,18.499468679254505 212.02980701957318,19.644000679254535 C210.8305890195732,20.780718679254505 209.15480701957318,21.358843679254502 206.95949501957324,21.358843679254502 L206.60012001957324,21.358843679254502 L206.60012001957324,8.823687679254533 zM222.61574501957324,26.483843679254505 C221.58449501957324,25.624468679254505 220.4087140195732,24.886187679254533 219.0493390195732,24.276812679254533 C219.6743390195732,23.936968679254502 220.2602760195732,23.550250679254535 220.77980701957318,23.120562679254533 C223.6509010195732,20.808062679254533 225.0884010195732,17.542437679254533 225.0884010195732,13.304156679254561 C225.0884010195732,9.140093679254505 223.6352760195732,5.882281679254561 220.7055890195732,3.522906679254561 C217.7837140195732,1.1713436792545058 213.7212140195732,-0.008343320745438879 208.5493390195732,-0.008343320745438879 L193.67824501957324,-0.008343320745438879 C194.56887001957324,1.4369686792545053 195.08449501957324,3.1400936792545053 195.08449501957324,4.968218679254506 L195.08449501957324,48.16353167925456 C195.08449501957324,49.99165667925456 194.56887001957324,51.69478167925456 193.6821510195732,53.140093679254505 L209.49855701957318,53.140093679254505 C215.20949501957324,53.140093679254505 219.6196510195732,51.81978167925456 222.72512001957324,49.16743767925453 C225.82668201957318,46.52290667925456 227.3774640195732,42.73775067925453 227.3774640195732,37.827593679254505 C227.3774640195732,32.91353167925456 225.78762001957324,29.13228167925456 222.61574501957324,26.483843679254505 " id="svg_17" fill="#ffffff" fill-opacity="1"/>
<path style="stroke: none; fill-rule: nonzero;" d="M324.4712140195732,49.60103167925456 C322.9204320195732,47.46431267925453 320.41262001957324,43.90181267925453 316.95949501957324,38.91743767925453 L313.0571510195732,33.30025067925453 L314.4790260195732,31.265093679254505 C317.9321510195732,26.433062679254533 322.20949501957324,21.847125679254535 323.8774640195732,19.718218679254505 C325.5415260195732,17.593218679254505 326.70949501957324,16.331500679254532 327.35012001957324,15.936968679254505 L313.6548070195732,15.936968679254505 C313.5962140195732,17.128375679254532 313.4087140195732,18.214312679254533 313.0571510195732,19.186968679254502 C312.7134010195732,20.159625679254532 312.1548070195732,21.24165667925456 311.3735570195732,22.409625679254532 L304.9555890195732,30.733843679254505 L304.9555890195732,4.968218679254506 C304.9555890195732,3.1400936792545053 305.4673070195732,1.4369686792545053 306.3540260195732,-0.008343320745438879 L292.9165260195732,-0.008343320745438879 C293.8071510195732,1.4369686792545053 294.3227760195732,3.1400936792545053 294.3227760195732,4.968218679254506 L294.3227760195732,48.16353167925456 C294.3227760195732,49.99165667925456 293.8071510195732,51.69478167925456 292.9204320195732,53.140093679254505 L306.3540260195732,53.140093679254505 C305.4634010195732,51.69478167925456 304.9555890195732,49.99165667925456 304.9555890195732,48.16353167925456 L304.9555890195732,38.26900067925453 L312.0571510195732,49.88228167925456 C312.2290260195732,50.171343679254505 312.4321510195732,50.56587567925453 312.6704320195732,51.05025067925453 C312.91262001957324,51.53462567925453 313.2446510195732,52.233843679254505 313.6430890195732,53.140093679254505 L327.35012001957324,53.140093679254505 C327.0024640195732,52.921343679254505 326.0415260195732,51.73775067925453 324.4712140195732,49.60103167925456 " id="svg_18" fill="#ffffff" fill-opacity="1"/>
</g></g></svg>